<svg width="355" height="151" viewBox="0 0 355 151" fill="none" xmlns="http://www.w3.org/2000/svg">
<g clip-path="url(#clip0_26_100)">
<path d="M328.424 0.400024C342.984 0.400024 354.824 7.92002 354.824 24.4C354.824 37.52 342.984 47.76 328.424 47.76C313.704 47.76 302.664 39.76 302.664 24.56C302.664 10.48 314.824 0.400024 328.424 0.400024ZM328.904 42.96C334.824 42.96 340.424 36.4 340.424 24.72C340.424 12.4 335.624 5.36003 328.584 5.36003C321.544 5.36003 316.904 13.04 316.904 23.92C316.904 35.28 321.544 42.96 328.904 42.96Z" fill="#333333"/>
<path d="M290.451 18.96V23.12C279.891 36.56 274.611 45.2 267.571 60.72C261.651 73.84 258.131 90.32 256.851 114.32C256.211 127.6 251.251 133.36 243.091 133.36C236.051 133.36 230.931 129.2 230.931 119.92C230.931 109.68 237.011 95.6 247.411 77.84C257.171 61.2 263.251 53.68 274.291 38.64H232.691C225.811 38.64 221.331 42.64 214.931 57.2L211.411 56.4L221.971 10H225.011L226.611 18.96H290.451Z" fill="#333333"/>
<path d="M127.629 41.68C127.629 26.48 146.189 14.8 169.709 14.8C190.509 14.8 202.509 22.8 202.509 35.6C202.509 49.52 189.869 56.72 168.749 59.92L166.669 61.84C167.629 61.68 170.509 61.36 171.629 61.36C185.389 61.36 204.909 66 204.909 83.44C204.909 105.68 181.229 118.32 155.469 118.32C136.589 118.32 120.429 111.44 120.429 96.08C120.429 84.88 128.269 78.64 137.549 78.64C145.229 78.64 149.549 83.6 149.549 88.4C149.549 98.64 138.829 99.28 138.829 104.56C138.829 108.72 143.469 113.68 153.709 113.68C167.789 113.68 178.349 101.2 178.349 82.16C178.349 71.6 175.629 66.16 167.149 66.16C161.549 66.16 156.909 70 152.109 74.48L148.589 68.88C165.549 58.16 176.589 51.76 176.589 35.6C176.589 23.76 170.989 19.28 163.789 19.28C152.749 19.28 146.349 28.4 146.349 36.88C146.349 42.64 148.909 47.6 154.029 47.6C158.349 47.6 161.389 44.72 164.109 41.84L166.509 44.08C162.829 50.32 153.229 57.84 146.029 57.84C134.189 57.84 127.629 51.44 127.629 41.68Z" fill="#333333"/>
<path d="M121.4 4.71997V8.39997C118.84 8.87997 110.68 9.51997 106.84 12.4C103 15.28 101.72 21.04 101.72 34.32V77.52C101.72 103.28 84.1201 116.56 61.4001 116.56C31.8001 116.56 15.8001 100.88 15.8001 77.52V18.96C15.8001 15.44 14.5201 12.88 11.0001 10.96C8.12012 9.35997 2.52012 8.71997 0.120117 8.39997V4.71997H58.6801V8.39997C55.9601 8.71997 50.2001 9.51997 47.6401 10.32C43.6401 11.6 42.6801 14.64 42.6801 18.16V77.52C42.6801 99.44 50.8401 108.56 67.9601 108.56C84.7601 108.56 95.3201 97.36 95.3201 76.72V35.28C95.3201 21.84 93.5601 16.56 90.0401 13.52C87.4801 11.28 77.8801 8.71997 75.1601 8.39997V4.71997H121.4Z" fill="#333333"/>
<path fill-rule="evenodd" clip-rule="evenodd" d="M16 145L212 145L212 151L16 151L16 145Z" fill="#333333"/>
</g>
<defs>
<clipPath id="clip0_26_100">
<rect width="355" height="151" fill="white"/>
</clipPath>
</defs>
</svg>
