<svg width="681" height="157" viewBox="0 0 681 157" fill="none" xmlns="http://www.w3.org/2000/svg">
<g clip-path="url(#clip0_26_99)">
<path d="M653.623 6.40002C668.183 6.40002 680.023 13.92 680.023 30.4C680.023 43.52 668.183 53.76 653.623 53.76C638.903 53.76 627.863 45.76 627.863 30.56C627.863 16.48 640.023 6.40002 653.623 6.40002ZM654.103 48.96C660.023 48.96 665.623 42.4 665.623 30.72C665.623 18.4 660.823 11.36 653.783 11.36C646.743 11.36 642.103 19.04 642.103 29.92C642.103 41.28 646.743 48.96 654.103 48.96Z" fill="#333333"/>
<path d="M615.607 24.96V29.12C605.047 42.56 599.767 51.2 592.727 66.72C586.807 79.84 583.287 96.32 582.007 120.32C581.367 133.6 576.407 139.36 568.247 139.36C561.207 139.36 556.087 135.2 556.087 125.92C556.087 115.68 562.167 101.6 572.567 83.84C582.327 67.2 588.407 59.68 599.447 44.64H557.847C550.967 44.64 546.487 48.64 540.087 63.2L536.567 62.4L547.127 16H550.167L551.767 24.96H615.607Z" fill="#333333"/>
<path d="M452.785 47.68C452.785 32.48 471.345 20.8 494.865 20.8C515.665 20.8 527.665 28.8 527.665 41.6C527.665 55.52 515.025 62.72 493.905 65.92L491.825 67.84C492.785 67.68 495.665 67.36 496.785 67.36C510.545 67.36 530.065 72 530.065 89.44C530.065 111.68 506.385 124.32 480.625 124.32C461.745 124.32 445.585 117.44 445.585 102.08C445.585 90.88 453.425 84.64 462.705 84.64C470.385 84.64 474.705 89.6 474.705 94.4C474.705 104.64 463.985 105.28 463.985 110.56C463.985 114.72 468.625 119.68 478.865 119.68C492.945 119.68 503.505 107.2 503.505 88.16C503.505 77.6 500.785 72.16 492.305 72.16C486.705 72.16 482.065 76 477.265 80.48L473.745 74.88C490.705 64.16 501.745 57.76 501.745 41.6C501.745 29.76 496.145 25.28 488.945 25.28C477.905 25.28 471.505 34.4 471.505 42.88C471.505 48.64 474.065 53.6 479.185 53.6C483.505 53.6 486.545 50.72 489.265 47.84L491.665 50.08C487.985 56.32 478.385 63.84 471.185 63.84C459.345 63.84 452.785 57.44 452.785 47.68Z" fill="#333333"/>
<path d="M444.319 116.64V120H401.919V116.64C403.999 116.48 406.239 116.16 407.839 115.36C409.919 114.24 410.239 111.84 410.239 108.32V69.76C410.239 58.72 406.559 54.24 400.959 54.24C392.799 54.24 388.639 60.32 386.879 63.84V107.52C386.879 111.04 387.519 113.44 389.599 114.72C391.679 116 393.599 116.32 395.679 116.64V120H352.959V116.64C355.519 116.48 357.599 116.16 359.679 115.36C362.559 114.24 363.679 111.84 363.679 108.32V60.96C363.679 57.6 361.919 54.08 359.519 52.48C357.599 51.2 354.399 50.24 351.839 50.08V46.88L385.759 44.96L386.879 46.08V57.12H387.199C392.959 51.04 398.399 44 411.839 44C426.399 44 433.759 53.92 433.759 69.12V107.68C433.759 111.2 434.559 113.44 437.439 114.72C439.679 115.68 441.439 116.32 444.319 116.64Z" fill="#333333"/>
<path d="M315.054 106.24L315.694 78.4C304.654 82.72 297.614 86.24 297.614 99.68C297.614 109.12 301.134 112.32 305.614 112.32C311.054 112.32 312.654 109.92 315.054 106.24ZM349.934 98.72H353.934C353.614 112.16 348.814 122.08 334.414 122.08C324.174 122.08 319.214 117.6 316.014 111.68H315.534C310.254 117.28 305.134 122.4 292.654 122.4C281.774 122.4 273.294 114.72 273.294 104.16C273.294 90.56 280.974 86.4 288.974 83.52C298.574 80 311.534 76.32 315.534 73.28V64C315.534 58.56 315.534 47.84 306.414 47.84C302.414 47.84 299.854 49.6 298.574 50.88C299.054 53.44 301.454 58.08 301.454 63.04C301.454 66.56 296.654 72.16 288.334 72.16C280.014 72.16 276.814 66.4 276.814 61.12C276.814 51.2 293.934 44 307.694 44C324.814 44 338.894 46.72 338.894 68C338.894 82.56 337.934 99.68 337.934 104.96C337.934 107.52 339.694 112.48 343.694 112.48C348.494 112.48 349.774 105.92 349.934 98.72Z" fill="#333333"/>
<path d="M226.925 118.24C236.045 118.24 241.485 104.96 241.485 84.48C241.485 68.8 238.445 53.44 226.285 53.44C220.365 53.44 217.965 55.68 214.605 59.68V106.4C216.045 111.36 219.245 118.24 226.925 118.24ZM235.565 44C253.965 44 267.085 59.04 267.085 83.36C267.085 105.92 251.405 122.4 230.445 122.4C214.125 122.4 207.405 116.16 203.245 112.8L193.325 123.2L190.445 121.92C190.925 115.52 191.405 104.48 191.405 92.96V17.6C191.405 14.08 189.645 10.24 187.085 8.48002C185.165 7.20002 179.565 5.92001 176.845 5.76002V2.56002L213.485 0.640015L214.605 1.76002V54.08L215.245 54.24C218.765 50.24 225.805 44 235.565 44Z" fill="#333333"/>
<path d="M169.401 44.32C177.401 44.32 183.321 50.08 183.321 58.88C183.321 66.4 178.361 72.64 171.001 72.64C164.121 72.64 159.161 68.8 159.161 62.24C159.161 59.36 160.601 56.48 161.081 54.56C154.201 54.72 149.721 60 148.441 62.24V107.68C148.441 111.2 150.041 113.6 152.761 114.72C155.321 115.84 160.921 116.48 163.321 116.64V120H114.521V116.64C117.081 116.48 119.161 116.16 121.241 115.36C124.281 114.24 125.241 111.84 125.241 108.32V60.96C125.241 57.92 123.481 54.24 121.081 52.48C119.321 51.2 115.801 50.24 113.081 50.08V46.88L147.321 44.96L148.441 46.08V56.8H148.761C155.161 48.48 161.721 44.32 169.401 44.32Z" fill="#333333"/>
<path d="M121.4 10.72V14.4C118.84 14.88 110.68 15.52 106.84 18.4C103 21.28 101.72 27.04 101.72 40.32V83.52C101.72 109.28 84.1201 122.56 61.4001 122.56C31.8001 122.56 15.8001 106.88 15.8001 83.52V24.96C15.8001 21.44 14.5201 18.88 11.0001 16.96C8.12012 15.36 2.52012 14.72 0.120117 14.4V10.72H58.6801V14.4C55.9601 14.72 50.2001 15.52 47.6401 16.32C43.6401 17.6 42.6801 20.64 42.6801 24.16V83.52C42.6801 105.44 50.8401 114.56 67.9601 114.56C84.7601 114.56 95.3201 103.36 95.3201 82.72V41.28C95.3201 27.84 93.5601 22.56 90.0401 19.52C87.4801 17.28 77.8801 14.72 75.1601 14.4V10.72H121.4Z" fill="#333333"/>
<path fill-rule="evenodd" clip-rule="evenodd" d="M16 151L537 151L537 157L16 157L16 151Z" fill="#333333"/>
</g>
<defs>
<clipPath id="clip0_26_99">
<rect width="681" height="157" fill="white"/>
</clipPath>
</defs>
</svg>
